<svg xmlns="http://www.w3.org/2000/svg" width="48" height="48" viewBox="0 0 48 48" fill="none">
  <!-- Background circle -->
  <circle cx="24" cy="24" r="24" fill="#059669"/>
  
  <!-- Leaf shape -->
  <path d="M14 32C14 32 16 18 28 12C28 12 30 26 18 34" fill="#34D399" stroke="#fff" stroke-width="1.5" stroke-linecap="round"/>
  <path d="M14 32C18 26 22 22 28 12" fill="none" stroke="#fff" stroke-width="1.5" stroke-linecap="round"/>
  
  <!-- Leaf veins -->
  <path d="M18 28C20 25 22 22 25 18" fill="none" stroke="#fff" stroke-width="0.8" stroke-linecap="round" opacity="0.6"/>
  <path d="M16 30C18 28 20 25 22 22" fill="none" stroke="#fff" stroke-width="0.8" stroke-linecap="round" opacity="0.6"/>

  <!-- Chain links (blockchain) -->
  <rect x="30" y="28" width="8" height="5" rx="2.5" fill="none" stroke="#fff" stroke-width="1.5"/>
  <rect x="34" y="33" width="8" height="5" rx="2.5" fill="none" stroke="#fff" stroke-width="1.5" transform="rotate(-15 38 35.5)"/>
  <line x1="34" y1="31" x2="35.5" y2="33.5" stroke="#fff" stroke-width="1.5" stroke-linecap="round"/>
</svg>